<?xml version="1.0" standalone="yes"?>
<svg width="1050" height="217">
<path style="fill:#000000; stroke:none;" d="M0 0L0 217L1050 217L1050 0L0 0z"/>
<path style="fill:#5c504d; stroke:none;" d="M84 59C89.4127 58.9964 105.479 53.9103 109.258 57.6181C116.009 64.2424 110.488 83.1368 119 89L120 85L121 85L110 99L111 99L112 95L119 101L117 108C121.56 106.408 123.614 100.38 125 96L126 96L122 108C125.888 105.537 126.767 102.479 127 98L130 100L132 94L136 105C143.798 99.3764 136.395 78.2632 131.351 72.2238C129.176 69.619 123.207 68.0086 123.207 64.0401C123.207 59.839 129.192 60.0201 132 60.0008C141.666 59.9343 151.334 60 161 60C159.56 64.9467 162.584 77.417 168 79L168 70L171 70L171 50C174.62 51.9654 178.818 54.8219 176 59L176 60L178 62C170.285 64.5606 175.869 72.7725 176.276 78.0895C176.673 83.2741 175.014 88.7455 175 94L176 94L180 80L181 80L180 93L182 93L183 82L185 82L185 90L186 90C186 83.1277 183.157 68.1182 187.028 62.3179C190.112 57.6956 214.026 58.5901 218.937 60.6034C222.984 62.2627 222.035 65.2623 219 67L222 84L232 83L232 77L235 77C235.058 83.9571 236.815 105.476 244 108L243 92L244 92L248 105C247.524 95.6942 247.733 81.5059 244.12 73C231.538 43.3741 195.839 26.1854 165 29.1698C153.258 30.306 142.19 34.6665 132 40.439C130.241 41.4353 123.583 47.0346 121.662 45.1335C119.367 42.8614 124.635 39.5736 126.005 38.591C132.446 33.9709 139.541 30.5045 147 27.8642C171.117 19.3276 193.617 26.6812 216 36L219 21L217 18L219 14L225 14C217.948 8.15781 207.726 5.79456 199 3.62654C169.563 -3.6873 135.744 2.43726 111 20.0008C97.2178 29.7835 84.1473 41.204 84 59z"/>
<path style="fill:#6d5e56; stroke:none;" d="M219 14L220 17L217 18L219 21C214.154 34.4646 219.679 37.4508 229 46.0903C233.036 49.8312 236.341 55.0519 242 56C239.191 47.0012 239.248 41.8348 241 33L244 34L243 36L248 40C247.99 26.537 232.334 14.3944 219 14z"/>
<path style="fill:#3c352d; stroke:none;" d="M225 14L225 15L232 18L225 14z"/>
<path style="fill:#2d2825; stroke:none;" d="M232 18L235 20L232 18z"/>
<path style="fill:#262621; stroke:none;" d="M235 20L238 22L235 20z"/>
<path style="fill:#000000; stroke:none;" d="M239 148C238.289 142.38 238.583 134.916 233 132L236 160L262 156L262 152L245 153C249.871 141.3 255.14 130.815 256.714 118C260.268 89.0623 247.51 58.503 224 41.1559C201.476 24.5365 169.358 18.678 143 29.0031C136.566 31.5233 124.495 35.7989 121.086 42.3056C119.651 45.0447 121.892 46.8266 124.444 45.6636C130.145 43.0643 135.234 38.9772 141 36.3302C180.179 18.343 227.015 36.7291 245.08 76C253.07 93.3698 254.793 113.762 248.245 132C246.314 137.381 244.116 145.045 239 148z"/>
<path style="fill:#ffffff; stroke:none;" d="M160 26L161 27L160 26z"/>
<path style="fill:#808080; stroke:none;" d="M155 27L156 28L155 27z"/>
<path style="fill:#0000ff; stroke:none;" d="M156 27L157 28L156 27z"/>
<path style="fill:#ffffff; stroke:none;" d="M152 28L153 29L152 28M146 30L147 31L146 30M143 31L144 32L143 31M141 32L142 33L141 32z"/>
<path style="fill:#5d504d; stroke:none;" d="M248 32L248 40L243 36L244 34L241 33L238.317 41.0895L239 56C242.917 63.0226 249.273 66.1003 256 70C257.166 65.9053 256.932 61.5792 252 61L253 50L252 50L249 58L248 58L248 41C254.43 44.8936 254 52.269 254 59L256 59L256 51L259 51L258 67C262.231 63.9489 260.609 59.6154 260.17 55C259.15 44.2834 257.404 38.6251 248 32z"/>
<path style="fill:#ffffff; stroke:none;" d="M139 33L140 34L139 33M135 35L136 36L135 35M133 36L134 37L133 36M130 38L131 39L130 38z"/>
<path style="fill:#606060; stroke:none;" d="M128 39L129 40L128 39z"/>
<path style="fill:#ffffff; stroke:none;" d="M127 40L128 41L127 40z"/>
<path style="fill:#3e2f29; stroke:none;" d="M248 41L248 58L249 58L252 50L253 50L252 61C257.057 60.8194 257.052 66.3659 256 70C252.085 66.7116 250.397 64.2856 245 65C254.977 83.9661 260.28 104.677 255.102 126C252.783 135.548 247.674 143.718 245 153L262 152L262 156L236 160L233 132C237.325 135.37 237.891 139.745 238 145L239 145C239.116 130.759 237.586 98.4523 217 106L217 72L216 72L216 137C216.006 140.297 215.705 143.923 217.738 146.741C218.925 148.386 223.366 150.615 222.387 153.125C221.19 156.194 213.505 155 211 155C203.624 155 177.288 159.266 179 149C187.72 150.139 186 140.069 186 134C186 116.641 185.143 99.2862 185 82L183 82L182 93L179 92C177.259 108.307 172.467 123.175 167.72 139C166.014 144.689 165.479 152.832 160 156C158.224 135.787 146.299 113.358 140 94L139 94L136 105C139.199 116.725 135.839 131.051 140.148 141.999C141.216 144.712 149.669 151.034 148.079 153.44C145.752 156.958 118.045 158.076 126 149L125 144L123 147L122 147L118 146L116 143L117 136L110 140L108 134L118 132C103.787 131.772 102.055 102.757 96 92L95 92C93.9496 105.309 93.2308 118.004 97.2052 131C107.483 164.609 139.727 188.35 175 187.545C194.216 187.106 208.203 178.851 225 171C223.146 177.028 216.094 179.871 211 183L207 210C219.281 208.186 228.294 200.909 238 193.848C268.471 171.68 286.436 130.616 280.561 93C277.757 75.0454 269.675 60.5819 261 45L260 45C260 51.7879 262.866 61.8407 258 67L259 51L256 51L256 59L254 59C254 52.6094 255.086 43.8117 248 41z"/>
<path style="fill:#bf8080; stroke:none;" d="M124 42L125 43L124 42z"/>
<path style="fill:#3f2f29; stroke:none;" d="M84 47C77.3467 57.8318 71.8846 68.6965 68.4282 81C67.0379 85.9492 64.9256 92.1139 71 94L71 77L72 77L80 89C76.6054 89 78.3317 92.4282 81 93C77.3576 108.299 82.6509 125.236 81.9606 141C81.7509 145.791 78.9306 153.444 83 157L86 149L86 153L87 153L87 147L88 147L89 157L91 155L92 155L93 164L92 164L91 158L90 158L90 170L92 170L92 166L93 166L95 179L96 179L96 169L97 169L98 178L99 178L99 176L100 176C100.107 187.186 103.306 194.057 115 198L116 183L120 183L120 202C132.147 209.063 147.842 214.708 162 215C160.895 208.666 165.532 200.644 162.142 194.569C159.54 189.907 148.676 189.078 144 187.316C132.704 183.058 121.388 175.861 113.17 166.985C95.9555 148.395 85.167 121.64 89.3248 96C91.2759 83.9685 97.4271 74.2906 101 63L85 66L84 47z"/>
<path style="fill:#433c39; stroke:none;" d="M171 50L171 70L168 70C167.969 78.9925 165.222 97.4567 177 101L177 100C172.813 93.6295 176.7 85.0963 176.571 78.0895C176.505 74.5012 173.912 71.7507 174.078 68.0039C174.219 64.8294 175.383 63.4434 178 62L176 60C179.315 55.213 175.769 51.7237 171 50z"/>
<path style="fill:#000000; stroke:none;" d="M85 66L101 63C95.9185 73.8837 90.08 84.7241 89.0934 97C85.101 146.672 121.322 192.994 173 193L173 192L171 192L171 191C186.131 191 199.417 189.434 213 182.218C217.894 179.619 224.009 176.861 225 171C216.639 173.647 209.292 179.367 201 182.539C186.382 188.132 169.076 188.865 154 184.845C108.353 172.673 71.2548 108.098 107 67L110 84C114.594 81.4036 113.263 76.6662 112.573 72C112.043 68.4217 112.233 58.355 108.566 56.6181C102.447 53.7195 82.8544 57.9424 85 66z"/>
<path style="fill:#0000ff; stroke:none;" d="M96 59L97 60L96 59z"/>
<path style="fill:#00ffff; stroke:none;" d="M89 60L90 61L89 60z"/>
<path style="fill:#3a3532; stroke:none;" d="M124 60L124 61L161 61C151.202 56.8887 134.649 60 124 60z"/>
<path style="fill:#383130; stroke:none;" d="M187 60L187 61L221 61L187 60z"/>
<path style="fill:#ffffff; stroke:none;" d="M87 61L88 62L87 61z"/>
<path style="fill:#000000; stroke:none;" d="M160 156C166.031 153.901 166.621 143.51 168.341 138C174.016 119.817 179.987 102.189 180 83L179 83C177.607 87.3564 173.13 96.4817 177 100C164.016 97.6237 168.374 68.8284 158.501 62.0278C152.761 58.0742 136.87 60.9534 130 61.0008C127.699 61.0166 122.636 60.5786 122.636 64.0864C122.635 67.5521 127.306 67.6176 129.247 69.5185C131.948 72.1643 133.429 76.5167 134.655 80C143.108 104.011 156.236 130.868 160 156z"/>
<path style="fill:#221c1b; stroke:none;" d="M186 61L186 145L187 145L187 87L186 61z"/>
<path style="fill:#000000; stroke:none;" d="M187 61L187 129C187 136.119 189.056 148.833 179 149C176.178 159.466 203.644 155 211 155C213.83 155 219.91 156.114 222.149 153.977C223.552 152.637 222.561 150.889 221.538 149.705C217.045 144.507 216.003 142.011 216 135C215.993 115.986 215.739 97.0141 216.004 78C216.061 73.8774 223.39 64.711 221.914 62.5849C220.389 60.3894 216.27 61.0047 214 61L190 61L190 144L189 144L189 61L187 61z"/>
<path style="fill:#0000ff; stroke:none;" d="M189 61L190 62L189 61z"/>
<path style="fill:#ffffff; stroke:none;" d="M126 62L127 63L126 62M189 62L189 88L190 88L189 62z"/>
<path style="fill:#555555; stroke:none;" d="M125.333 63.6667L125.667 64.3333L125.333 63.6667z"/>
<path style="fill:#aaaaaa; stroke:none;" d="M103 66L104 67L103 66z"/>
<path style="fill:#4e3f38; stroke:none;" d="M106 67C93.3924 83.3039 97.3438 97.1643 103.67 115C106.469 122.892 109.169 132.817 118 132L108 134L110 140L117 136L116 143L118 146L122 147L123 147L125 144L125 148C132.651 145.32 132.997 138.129 133 131C133.005 119.103 131.237 105.606 134 94L130 100L127 98L122 108L126 96L125 96L117 108L119 101L112 95L111 99L110 99L109 96C114.367 92.8335 119.426 91.4713 121 85L120 85L119 89L116 88C117.078 83.2923 116.703 80.268 113 77L110 84L106 67z"/>
<path style="fill:#322926; stroke:none;" d="M125 68L130 70L125 68z"/>
<path style="fill:#ffffff; stroke:none;" d="M102 68L103 69L102 68z"/>
<path style="fill:#4d3e39; stroke:none;" d="M218 68C213.886 78.2252 217 94.8938 217 106C219.763 105.342 223 103.299 225.896 104.046C229.451 104.964 231.15 110.09 232.711 113C239.011 124.739 239 135.001 239 148C244.361 146.136 246.454 137.991 248.245 133C254.849 114.606 251.965 96.1954 247 78L246 78L248 105L244 92L243 92L244 108C237.053 103.945 235.163 84.6508 235 77L232 77L232 83L222 84L218 68z"/>
<path style="fill:#ffffff; stroke:none;" d="M110 69L111 70L110 69z"/>
<path style="fill:#38312f; stroke:none;" d="M393 95C387.287 92.8704 382.12 91.8569 376 92.0147C338.298 92.9868 341.633 164.875 381 158.076C385.565 157.287 389.152 155.514 393 153C394.948 158.541 402.09 157 407 157L406 113L407 70C389.136 64.7197 393 83.0498 393 95z"/>
<path style="fill:#322a27; stroke:none;" d="M545 84C548.417 84 553.549 84.9382 556.682 83.3966C565.896 78.8629 553.49 61.182 546.028 70.6034C543.694 73.5505 545 80.4352 545 84z"/>
<path style="fill:#241c19; stroke:none;" d="M699 69L699 126L698 157L701 157L701 156L700 127L700 70L704 70L699 69z"/>
<path style="fill:#433937; stroke:none;" d="M700 70L700 130C700 136.627 697.657 148.694 700.603 154.682C702.546 158.631 710.776 157.564 712.397 153.852C715.819 146.013 713 131.537 713 123C726.916 123 742.528 125.153 754.996 117.647C768.507 109.514 770.318 86.5425 757.96 76.5293C744.381 65.5277 716.349 67.9338 700 70z"/>
<path style="fill:#3f3734; stroke:none;" d="M778 69L778 126L777 157L789.971 155.397L790.989 136L790 92L789.397 71.3179L778 69z"/>
<path style="fill:#ffffff; stroke:none;" d="M101 70L102 71L101 70z"/>
<path style="fill:#181412; stroke:none;" d="M406 71L406 156L407 156L407 97L406 71z"/>
<path style="fill:#333333; stroke:none;" d="M407 71L407 155L408 155L408 97L407 71z"/>
<path style="fill:#191919; stroke:none;" d="M697 71L697 156L698 156L698 97L697 71z"/>
<path style="fill:#554845; stroke:none;" d="M732 71C732.036 81.2765 741.919 83.0354 751 85L751 74L732 71z"/>
<path style="fill:#aaaaaa; stroke:none;" d="M775 71L775 154L776 154L776 97L775 71z"/>
<path style="fill:#2b2b2b; stroke:none;" d="M790 71L790 80L791 80L790 71z"/>
<path style="fill:#ffffff; stroke:none;" d="M100 72L101 73L100 72M99 74L100 75L99 74z"/>
<path style="fill:#aaaaaa; stroke:none;" d="M98 76L99 77L98 76z"/>
<path style="fill:#ffffff; stroke:none;" d="M111 76L112 77L111 76z"/>
<path style="fill:#312420; stroke:none;" d="M71 77L71 94L66 92C65.2289 129.357 71.8349 157.593 98 186L99 186L100 176L99 176L99 178L98 178L97 169L96 169L96 179L95 179L93 166L92 166L92 170L90 170L90 158L91 158L92 164L93 164L92 155L91 155L89 157L88 147L87 147L87 153L86 153L86 149C82.8634 151.088 82.5066 153.364 83 157L81.9992 139L81 93C77.1557 92.3593 76.9293 88.2323 80 89L73.7222 83.75L71 77z"/>
<path style="fill:#302824; stroke:none;" d="M934 78L934 95L931 95L931 79L930 79L930 93L926 93L926 104L930 104L930 142L931 142L931 103L934 103L934 144L937 156C947.709 159.009 957.99 160.542 958 147C939.428 148.298 946 117.079 946 104L956 104C955.999 95.3029 955.016 93.007 946 93L946 78L934 78z"/>
<path style="fill:#ffffff; stroke:none;" d="M97 79L98 80L97 79z"/>
<path style="fill:#2b2724; stroke:none;" d="M180 80L180 87L181 87L180 80z"/>
<path style="fill:#6d6d6d; stroke:none;" d="M96 81L97 82L96 81z"/>
<path style="fill:#231b1b; stroke:none;" d="M712 81L712 100L713 100L713 82L743 82L712 81z"/>
<path style="fill:#2b2b2b; stroke:none;" d="M790 81L790 106L791 106L790 81z"/>
<path style="fill:#000000; stroke:none;" d="M713 82L713 111C721.867 110.62 739.202 113.058 746.899 108.679C755.78 103.627 754.89 87.7013 745.995 83.3187C737.53 79.1473 722.276 82 713 82z"/>
<path style="fill:#6d6d6d; stroke:none;" d="M744 84L745 85L744 84z"/>
<path style="fill:#ffffff; stroke:none;" d="M95 85L96 86L95 85M745 85L746 86L745 85M281 87L282 88L281 87z"/>
<path style="fill:#00ffff; stroke:none;" d="M747 87L748 88L747 87z"/>
<path style="fill:#558080; stroke:none;" d="M94 88L95 89L94 88z"/>
<path style="fill:#8080ff; stroke:none;" d="M189 88L190 89L189 88z"/>
<path style="fill:#aaaaaa; stroke:none;" d="M748 88L749 89L748 88z"/>
<path style="fill:#ffffff; stroke:none;" d="M189 89L189 137L190 137C190 123.474 194.209 101.414 189 89z"/>
<path style="fill:#808080; stroke:none;" d="M749 90L750 91L749 90z"/>
<path style="fill:#312a28; stroke:none;" d="M298 113C299.605 102.896 314.96 98.6443 322.852 105.434C326.365 108.456 325.997 112.793 326 117L302 118L302 119L308 120L305 127L327 127C327 144.839 316.759 146.798 301 148L301 156L296 156L296 157C306.899 159.248 316.165 158.719 326 153C329.143 158.124 334.589 157 340 157C335.432 137.814 349.206 101.188 324 92.7029C319.732 91.2662 314.444 91.9793 310 92.0008C303.829 92.0305 297.018 92.9241 292.329 97.3904C282.703 106.562 286.542 113 298 113z"/>
<path style="fill:#423835; stroke:none;" d="M417 120L418 120L425 105L425 112L428 111L429 120L439 120L436 122L436 123L439 125L437 127L429 127L429 133L430 133L430 128C435.365 130.868 444.89 129 451 129C456.846 129 471.71 131.684 476.397 127.972C483.083 122.676 473.731 104.427 469.699 100.094C452.061 81.1425 418.138 95.1007 417 120z"/>
<path style="fill:#372d2b; stroke:none;" d="M585 101L595 96L592 106L611 105C614.743 114.188 614 123.207 614 133C614 138.794 611.954 149.346 614.603 154.566C616.134 157.583 622.901 158.012 624.972 155.397C627.301 152.457 626 145.531 626 142C626 129.716 628.337 114.594 623.518 103.001C617.865 89.4013 591.587 87.285 585 101z"/>
<path style="fill:#3e3734; stroke:none;" d="M816 95L823 94L823 101C818.378 102.36 816.428 105.532 815 110L814 110L814 106L813 106L813 112L805 109L804 109L804 113C814.754 113 813.899 108.658 822.094 104.179C826.639 101.695 834.877 102.042 840 102L840 101L831 101C832.066 91.4594 838.806 94.071 846 95C840.201 90.9704 820.847 89.007 816 95z"/>
<path style="fill:#302a28; stroke:none;" d="M885 93L885 94C888.334 98.4259 885.362 100.996 883 105L901 102L901 101L895 101L897 92L885 93z"/>
<path style="fill:#4a403b; stroke:none;" d="M895 101L911 110C911.012 105.784 912.691 99.8574 910.092 96.2245C904.348 88.1946 895.256 92.3771 895 101z"/>
<path style="fill:#ffffff; stroke:none;" d="M93 93L94 94L93 93z"/>
<path style="fill:#6d6d6d; stroke:none;" d="M253.333 93.6667L253.667 94.3333L253.333 93.6667z"/>
<path style="fill:#ffffff; stroke:none;" d="M282 93L283 94L282 93z"/>
<path style="fill:#3e3633; stroke:none;" d="M545 93L545 157L557.972 155.397L559 142L559 108L557.972 94.6034L545 93z"/>
<path style="fill:#2d2420; stroke:none;" d="M585 157L585 156L574 156L574 94L585 94C582.105 92.7854 575.326 91.702 573.028 94.6034C570.699 97.5433 572 104.469 572 108L572 142C572 145.531 570.699 152.457 573.028 155.397C575.262 158.218 581.82 157 585 157z"/>
<path style="fill:#574d49; stroke:none;" d="M831 101L846 106L848 95C840.265 94.3844 831.601 90.0588 831 101z"/>
<path style="fill:#4c3d37; stroke:none;" d="M574 94L574 156L586 156L586.148 116L592 103L595 103L595 96L585 101L586 94L574 94z"/>
<path style="fill:#544844; stroke:none;" d="M805 112L813 112L813 106L814 106L814 110L815 110L823 101L823 94C812.297 94.853 805.261 100.913 805 112z"/>
<path style="fill:#51423e; stroke:none;" d="M888 126L882.492 109.958L887 94C864.254 95.0569 864.791 125.805 888 126z"/>
<path style="fill:#000000; stroke:none;" d="M133 95C133 108.609 135.357 124.67 132.62 138C131.637 142.79 122.048 149.604 123.801 153.718C125.099 156.762 148.457 156.246 149.079 152.786C149.675 149.471 141.023 143.885 139.804 140C135.422 126.029 142.947 107.641 133 95z"/>
<path style="fill:#ffffff; stroke:none;" d="M809 95L810 96L809 95z"/>
<path style="fill:#372e2b; stroke:none;" d="M848 95L846 106L841 103L845 118C835.323 116.203 825.431 117.35 816 120L816 121L824 120L824 127L818 127C816.248 132.228 809.951 139.586 816 144C813.53 125.536 833.167 128.197 845 126C845 144.241 837.314 147.833 820 147L815 158C827.312 158.527 835.069 157.734 845 150L845 157C848.003 157 853.853 158.072 855.972 155.397C858.662 152 857 143.125 857 139C857 124.734 861.147 104.484 848 95z"/>
<path style="fill:#332b28; stroke:none;" d="M910 95L911 110L907 108L906 108C907.013 112.726 914.005 111 918 111C917.443 104.661 915.062 98.9724 910 95z"/>
<path style="fill:#ffffff; stroke:none;" d="M922 95L922 98L923 98L922 95M143 96L144 97L143 96M178 96L179 97L178 96z"/>
<path style="fill:#808080; stroke:none;" d="M806 98L807 99L806 98M144 99L145 100L144 99z"/>
<path style="fill:#ffffff; stroke:none;" d="M922.333 99.6667L922.667 100.333L922.333 99.6667M92.3333 100.667L92.6667 101.333L92.3333 100.667M254 100L255 101L254 100z"/>
<path style="fill:#232323; stroke:none;" d="M254 101L254 115L255 115L254 101z"/>
<path style="fill:#ff0000; stroke:none;" d="M804 101L805 102L804 101z"/>
<path style="fill:#808080; stroke:none;" d="M868 101L869 102L868 101z"/>
<path style="fill:#0000ff; stroke:none;" d="M922 101L923 102L922 101z"/>
<path style="fill:#ffffff; stroke:none;" d="M283 102L283 114L284 114L283 102z"/>
<path style="fill:#000000; stroke:none;" d="M372.004 102.782C355.186 108.55 359.41 154.646 383 146.701C401.388 140.507 397.47 94.0465 372.004 102.782z"/>
<path style="fill:#00ffff; stroke:none;" d="M922 102L923 103L922 102z"/>
<path style="fill:#000000; stroke:none;" d="M432 118L463 118C461.628 113.269 460.128 107.943 455.815 105.009C445.364 97.9015 433.592 107.426 432 118z"/>
<path style="fill:#ffffff; stroke:none;" d="M748 103L749 104L748 103M835 103L836 104L835 103z"/>
<path style="fill:#808080; stroke:none;" d="M339 104L340 105L339 104z"/>
<path style="fill:#ffffff; stroke:none;" d="M899 104L901 106L899 104M303 105L304 106L303 105M371 105L372 106L371 105z"/>
<path style="fill:#574740; stroke:none;" d="M423 105C418.191 119.171 412.299 133.294 422.928 146.91C437.687 165.816 471.847 161.634 477 137C473.376 135.929 466.894 134.727 463.495 137.028C454.725 142.967 448.399 156.249 436.39 143.671C434.561 141.754 433.432 139.324 432.224 137C430.468 133.625 429.253 130.808 429 127L439 125L436 123L436 122L439 120L429 120L428 111L425 112L425 105L423 105z"/>
<path style="fill:#1c1715; stroke:none;" d="M609 105C610.924 118.089 611 130.707 611 144C611 149.335 609.454 155.908 616 157L616 156C612.911 151.923 614 145.941 614 141C614 129.766 616.629 115.049 611 105L609 105z"/>
<path style="fill:#666666; stroke:none;" d="M302 106L303 107L302 106z"/>
<path style="fill:#00ffff; stroke:none;" d="M370 106L371 107L370 106z"/>
<path style="fill:#342926; stroke:none;" d="M869 106L869 114L870 114L869 106z"/>
<path style="fill:#ffffff; stroke:none;" d="M369 107L370 108L369 107M840 107L841 108L840 107M742 108L743 109L742 108z"/>
<path style="fill:#808080; stroke:none;" d="M801 109L802 110L801 109z"/>
<path style="fill:#00ffff; stroke:none;" d="M148 110L149 111L148 110z"/>
<path style="fill:#000040; stroke:none;" d="M718 110L718 111L724 111L718 110z"/>
<path style="fill:#ffffff; stroke:none;" d="M841.333 110.667L841.667 111.333L841.333 110.667z"/>
<path style="fill:#808080; stroke:none;" d="M148 111L149 112L148 111z"/>
<path style="fill:#ffffff; stroke:none;" d="M300 111L301 112L300 111z"/>
<path style="fill:#0000ff; stroke:none;" d="M610 111L611 112L610 111z"/>
<path style="fill:#ffffff; stroke:none;" d="M92.3333 114.667L92.6667 115.333L92.3333 114.667z"/>
<path style="fill:#808080; stroke:none;" d="M149 114L150 115L149 114z"/>
<path style="fill:#ffffff; stroke:none;" d="M254.333 115.667L254.667 116.333L254.333 115.667z"/>
<path style="fill:#403632; stroke:none;" d="M887 115L888 126L884 126L884 127L909 134L910 128L911 128L911 134L917 126L887 115z"/>
<path style="fill:#00ffff; stroke:none;" d="M150 116L151 117L150 116z"/>
<path style="fill:#ffffff; stroke:none;" d="M365 117L366 118L365 117z"/>
<path style="fill:#483832; stroke:none;" d="M301 156L297.664 137L308 120C284.946 113.727 274.472 155.76 301 156z"/>
<path style="fill:#ffffff; stroke:none;" d="M815 118L816 119L815 118z"/>
<path style="fill:#aaaaaa; stroke:none;" d="M811 120L812 121L811 120z"/>
<path style="fill:#4f413d; stroke:none;" d="M818 156L818.844 147.015L813.747 139.897L818 127L824 127L824 120C803.234 120.894 793.077 153.431 818 156z"/>
<path style="fill:#808080; stroke:none;" d="M868 120L869 121L868 120z"/>
<path style="fill:#555555; stroke:none;" d="M253.333 121.667L253.667 122.333L253.333 121.667z"/>
<path style="fill:#181613; stroke:none;" d="M870 122L870 123L905 136L905 132L870 122z"/>
<path style="fill:#ffffff; stroke:none;" d="M93 122L94 123L93 122z"/>
<path style="fill:#00ffff; stroke:none;" d="M152 122L153 123L152 122z"/>
<path style="fill:#80ffff; stroke:none;" d="M808 122L809 123L808 122z"/>
<path style="fill:#ffffff; stroke:none;" d="M282 123L283 124L282 123z"/>
<path style="fill:#8080ff; stroke:none;" d="M807 123L808 124L807 123z"/>
<path style="fill:#00ffff; stroke:none;" d="M806 124L807 125L806 124z"/>
<path style="fill:#ffffff; stroke:none;" d="M153 125L154 126L153 125z"/>
<path style="fill:#000000; stroke:none;" d="M845 126C839.05 126.752 832.875 126.418 827 127.444C820.231 128.626 811.092 137.907 817.434 144.697C823.452 151.139 841.162 148.301 844.397 139.96C845.961 135.926 845 130.27 845 126z"/>
<path style="fill:#ffffff; stroke:none;" d="M94 127L95 128L94 127z"/>
<path style="fill:#808080; stroke:none;" d="M252 127L253 128L252 127z"/>
<path style="fill:#000000; stroke:none;" d="M327 127C322.005 127 316.989 126.866 312 127.13C303.833 127.564 290.108 136.123 299.434 145.681C305.093 151.481 322.491 146.52 325.972 139.957C327.899 136.325 327 130.985 327 127z"/>
<path style="fill:#aaaaaa; stroke:none;" d="M804 127L805 128L804 127z"/>
<path style="fill:#312725; stroke:none;" d="M915 127L911 134L911 128L910 128L907 135C910.497 141.939 903.533 149.365 896 148.686C885.906 147.776 885.528 141.762 878.582 137.179C875.107 134.886 868.978 136 865 136L865 137L869 143L870 143L870 138L879 138L882 155L875 154C885.759 162.016 907.085 160.004 915.786 149.985C920.563 144.485 924.201 129.906 915 127z"/>
<path style="fill:#aaaaaa; stroke:none;" d="M281 128L282 129L281 128z"/>
<path style="fill:#1a1a1a; stroke:none;" d="M430 128C430.322 141.702 440.249 151.272 454 148L454 147C438.006 148.333 437.48 138.485 430 128z"/>
<path style="fill:#808080; stroke:none;" d="M95 131L96 132L95 131z"/>
<path style="fill:#ffffff; stroke:none;" d="M155 131L156 132L155 131M365.333 132.667L365.667 133.333L365.333 132.667M96 134L97 135L96 134M156 134L157 135L156 134M800 135L801 136L800 135z"/>
<path style="fill:#808080; stroke:none;" d="M97 137L98 138L97 137z"/>
<path style="fill:#ffffff; stroke:none;" d="M157 137L158 138L157 137z"/>
<path style="fill:#ff8080; stroke:none;" d="M189 137L190 138L189 137z"/>
<path style="fill:#808080; stroke:none;" d="M366 137L367 138L366 137z"/>
<path style="fill:#ffffff; stroke:none;" d="M189 138L189 144L190 144L189 138M235.333 138.667L235.667 139.333L235.333 138.667z"/>
<path style="fill:#4c3c34; stroke:none;" d="M870 138C870.089 146.057 873.506 153.286 882 155L879 138L870 138z"/>
<path style="fill:#ffffff; stroke:none;" d="M98 139L99 140L98 139z"/>
<path style="fill:#808080; stroke:none;" d="M135.333 139.667L135.667 140.333L135.333 139.667z"/>
<path style="fill:#555555; stroke:none;" d="M278.333 139.667L278.667 140.333L278.333 139.667z"/>
<path style="fill:#ffffff; stroke:none;" d="M367 139L368 140L367 139M799 139L799 143L800 143L799 139M841 139L842 140L841 139M158 140L159 141L158 140z"/>
<path style="fill:#00ffff; stroke:none;" d="M435 140L436 141L435 140z"/>
<path style="fill:#ffffff; stroke:none;" d="M368 141L369 142L368 141M839 141L838 143L839 141z"/>
<path style="fill:#808080; stroke:none;" d="M904 141L905 142L904 141z"/>
<path style="fill:#bfbfbf; stroke:none;" d="M299 142L300 143L299 142z"/>
<path style="fill:#808080; stroke:none;" d="M930.333 142.667L930.667 143.333L930.333 142.667z"/>
<path style="fill:#ffffff; stroke:none;" d="M159 143L160 144L159 143z"/>
<path style="fill:#808080; stroke:none;" d="M837 143L838 144L837 143z"/>
<path style="fill:#ffffff; stroke:none;" d="M835 144L836 145L835 144M930.333 144.667L930.667 145.333L930.333 144.667z"/>
<path style="fill:#aaaaaa; stroke:none;" d="M236.333 145.667L236.667 146.333L236.333 145.667z"/>
<path style="fill:#ffffff; stroke:none;" d="M302 145L303 146L302 145M833 145L834 146L833 145M900 145L901 146L900 145z"/>
<path style="fill:#808080; stroke:none;" d="M101 146L102 147L101 146z"/>
<path style="fill:#ffffff; stroke:none;" d="M160 146L161 147L160 146M304 146L305 147L304 146M830 146L831 147L830 146M898 146L899 147L898 146z"/>
<path style="fill:#00ffff; stroke:none;" d="M953 146L954 147L953 146z"/>
<path style="fill:#008080; stroke:none;" d="M309.667 147.333L310.333 147.667L309.667 147.333z"/>
<path style="fill:#555555; stroke:none;" d="M377.667 147.333L378.333 147.667L377.667 147.333z"/>
<path style="fill:#ffffff; stroke:none;" d="M161 149L162 150L161 149M104 151L105 152L104 151M162 152L163 153L162 152M237 152L238 153L237 152z"/>
<path style="fill:#0000ff; stroke:none;" d="M181 153L182 154L181 153z"/>
<path style="fill:#ffffff; stroke:none;" d="M106 154L107 155L106 154M127 154L128 155L127 154M775.333 154.667L775.667 155.333L775.333 154.667M108 157L110 159L108 157M112 162L113 163L112 162M114 164L116 166L114 164M117 167L121 171L117 167z"/>
<path style="fill:#808080; stroke:none;" d="M121 171L122 172L121 171z"/>
<path style="fill:#ffffff; stroke:none;" d="M125 174L126 175L125 174z"/>
<path style="fill:#6d6d6d; stroke:none;" d="M126 175L127 176L126 175z"/>
<path style="fill:#aaaaaa; stroke:none;" d="M129 177L130 178L129 177z"/>
<path style="fill:#ffffff; stroke:none;" d="M134 180L135 181L134 180M136 181L137 182L136 181M138 182L139 183L138 182z"/>
<path style="fill:#29201d; stroke:none;" d="M116 183C115.467 189.75 112.16 199.156 121 201L120 183L116 183z"/>
<path style="fill:#ffffff; stroke:none;" d="M140 183L141 184L140 183z"/>
<path style="fill:#2f2320; stroke:none;" d="M171 191L171 192L173 192L173 193L161 192L162.046 213.486L174 216L207 211C207.654 200.931 214.453 193.456 211 183C197.447 188.635 185.683 191 171 191z"/>
<path style="fill:#ff8080; stroke:none;" d="M142 184L143 185L142 184z"/>
<path style="fill:#ffffff; stroke:none;" d="M147 186L148 187L147 186M150 187L151 188L150 187M154 188L155 189L154 188M158 189L159 190L158 189M163 190L164 191L163 190z"/>
<path style="fill:#0000ff; stroke:none;" d="M164 190L165 191L164 190M200 212L201 213L200 212z"/>
<path style="fill:#00ffff; stroke:none;" d="M164 215L165 216L164 215z"/>
</svg>
